<mxfile host="app.diagrams.net" modified="2022-04-19T05:02:50.686Z" agent="5.0 (Windows NT 10.0; Win64; x64) AppleWebKit/537.36 (KHTML, like Gecko) Chrome/100.0.4896.88 Safari/537.36" etag="CecD7ajT7Kzypil1RSbS" version="17.4.5" type="github">
  <diagram id="C5RBs43oDa-KdzZeNtuy" name="Page-1">
    <mxGraphModel dx="2031" dy="1123" grid="1" gridSize="10" guides="1" tooltips="1" connect="1" arrows="1" fold="1" page="1" pageScale="1" pageWidth="1654" pageHeight="2336" math="0" shadow="0">
      <root>
        <mxCell id="WIyWlLk6GJQsqaUBKTNV-0" />
        <mxCell id="WIyWlLk6GJQsqaUBKTNV-1" parent="WIyWlLk6GJQsqaUBKTNV-0" />
        <mxCell id="YGo_0VgkUicNfhtKMKbp-1" value="START" style="ellipse;whiteSpace=wrap;html=1;fillColor=#b0e3e6;strokeColor=#0e8088;" vertex="1" parent="WIyWlLk6GJQsqaUBKTNV-1">
          <mxGeometry x="722" y="90" width="120" height="80" as="geometry" />
        </mxCell>
        <mxCell id="YGo_0VgkUicNfhtKMKbp-29" style="edgeStyle=orthogonalEdgeStyle;rounded=0;orthogonalLoop=1;jettySize=auto;html=1;exitX=0;exitY=0.5;exitDx=0;exitDy=0;fontColor=#000000;fillColor=#e51400;strokeColor=#B20000;" edge="1" parent="WIyWlLk6GJQsqaUBKTNV-1" source="YGo_0VgkUicNfhtKMKbp-2" target="YGo_0VgkUicNfhtKMKbp-19">
          <mxGeometry relative="1" as="geometry" />
        </mxCell>
        <mxCell id="YGo_0VgkUicNfhtKMKbp-2" value="순서가&lt;br&gt;중요한가?" style="rhombus;whiteSpace=wrap;html=1;fillColor=#FFF2CC;" vertex="1" parent="WIyWlLk6GJQsqaUBKTNV-1">
          <mxGeometry x="715" y="206" width="135" height="110" as="geometry" />
        </mxCell>
        <mxCell id="YGo_0VgkUicNfhtKMKbp-3" value="" style="endArrow=classic;html=1;rounded=0;entryX=0.5;entryY=0;entryDx=0;entryDy=0;exitX=0.5;exitY=1;exitDx=0;exitDy=0;" edge="1" parent="WIyWlLk6GJQsqaUBKTNV-1" source="YGo_0VgkUicNfhtKMKbp-1" target="YGo_0VgkUicNfhtKMKbp-2">
          <mxGeometry width="50" height="50" relative="1" as="geometry">
            <mxPoint x="902" y="480" as="sourcePoint" />
            <mxPoint x="952" y="430" as="targetPoint" />
          </mxGeometry>
        </mxCell>
        <mxCell id="YGo_0VgkUicNfhtKMKbp-34" style="edgeStyle=orthogonalEdgeStyle;rounded=0;orthogonalLoop=1;jettySize=auto;html=1;exitX=0.5;exitY=1;exitDx=0;exitDy=0;entryX=0.5;entryY=0;entryDx=0;entryDy=0;fontSize=19;fontColor=#000000;strokeColor=#000099;" edge="1" parent="WIyWlLk6GJQsqaUBKTNV-1" source="YGo_0VgkUicNfhtKMKbp-4" target="YGo_0VgkUicNfhtKMKbp-31">
          <mxGeometry relative="1" as="geometry" />
        </mxCell>
        <mxCell id="YGo_0VgkUicNfhtKMKbp-4" value="선입후출 방식?" style="rhombus;whiteSpace=wrap;html=1;fillColor=#FFF2CC;" vertex="1" parent="WIyWlLk6GJQsqaUBKTNV-1">
          <mxGeometry x="717.5" y="366" width="130" height="110" as="geometry" />
        </mxCell>
        <mxCell id="YGo_0VgkUicNfhtKMKbp-12" style="edgeStyle=orthogonalEdgeStyle;rounded=0;orthogonalLoop=1;jettySize=auto;html=1;exitX=1;exitY=0.5;exitDx=0;exitDy=0;entryX=0;entryY=0.5;entryDx=0;entryDy=0;fillColor=#e51400;strokeColor=#B20000;" edge="1" parent="WIyWlLk6GJQsqaUBKTNV-1" source="YGo_0VgkUicNfhtKMKbp-5" target="YGo_0VgkUicNfhtKMKbp-6">
          <mxGeometry relative="1" as="geometry" />
        </mxCell>
        <mxCell id="YGo_0VgkUicNfhtKMKbp-35" style="edgeStyle=orthogonalEdgeStyle;rounded=0;orthogonalLoop=1;jettySize=auto;html=1;exitX=0.5;exitY=1;exitDx=0;exitDy=0;entryX=0.5;entryY=0;entryDx=0;entryDy=0;fontSize=19;fontColor=#000000;strokeColor=#000099;" edge="1" parent="WIyWlLk6GJQsqaUBKTNV-1" source="YGo_0VgkUicNfhtKMKbp-5" target="YGo_0VgkUicNfhtKMKbp-32">
          <mxGeometry relative="1" as="geometry" />
        </mxCell>
        <mxCell id="YGo_0VgkUicNfhtKMKbp-5" value="선입선출 방식?" style="rhombus;whiteSpace=wrap;html=1;fillColor=#FFF2CC;" vertex="1" parent="WIyWlLk6GJQsqaUBKTNV-1">
          <mxGeometry x="912" y="366" width="130" height="110" as="geometry" />
        </mxCell>
        <mxCell id="YGo_0VgkUicNfhtKMKbp-17" style="edgeStyle=orthogonalEdgeStyle;rounded=0;orthogonalLoop=1;jettySize=auto;html=1;exitX=1;exitY=0.5;exitDx=0;exitDy=0;entryX=0.5;entryY=0;entryDx=0;entryDy=0;fontColor=#000000;fillColor=#e51400;strokeColor=#B20000;" edge="1" parent="WIyWlLk6GJQsqaUBKTNV-1" source="YGo_0VgkUicNfhtKMKbp-6" target="YGo_0VgkUicNfhtKMKbp-16">
          <mxGeometry relative="1" as="geometry" />
        </mxCell>
        <mxCell id="YGo_0VgkUicNfhtKMKbp-37" style="edgeStyle=orthogonalEdgeStyle;rounded=0;orthogonalLoop=1;jettySize=auto;html=1;exitX=0.5;exitY=1;exitDx=0;exitDy=0;entryX=0.5;entryY=0;entryDx=0;entryDy=0;fontSize=19;fontColor=#000000;strokeColor=#000099;" edge="1" parent="WIyWlLk6GJQsqaUBKTNV-1" source="YGo_0VgkUicNfhtKMKbp-6" target="YGo_0VgkUicNfhtKMKbp-33">
          <mxGeometry relative="1" as="geometry" />
        </mxCell>
        <mxCell id="YGo_0VgkUicNfhtKMKbp-6" value="우선순위&lt;br&gt;선출 방식?" style="rhombus;whiteSpace=wrap;html=1;fillColor=#FFF2CC;" vertex="1" parent="WIyWlLk6GJQsqaUBKTNV-1">
          <mxGeometry x="1122" y="366" width="130" height="110" as="geometry" />
        </mxCell>
        <mxCell id="YGo_0VgkUicNfhtKMKbp-7" value="" style="endArrow=classic;html=1;rounded=0;entryX=0.5;entryY=0;entryDx=0;entryDy=0;strokeColor=#000099;" edge="1" parent="WIyWlLk6GJQsqaUBKTNV-1" target="YGo_0VgkUicNfhtKMKbp-4">
          <mxGeometry width="50" height="50" relative="1" as="geometry">
            <mxPoint x="782" y="316" as="sourcePoint" />
            <mxPoint x="952" y="386" as="targetPoint" />
          </mxGeometry>
        </mxCell>
        <mxCell id="YGo_0VgkUicNfhtKMKbp-8" value="" style="endArrow=classic;html=1;rounded=0;exitX=1;exitY=0.5;exitDx=0;exitDy=0;entryX=0;entryY=0.5;entryDx=0;entryDy=0;fillColor=#fa6800;strokeColor=#C73500;" edge="1" parent="WIyWlLk6GJQsqaUBKTNV-1" source="YGo_0VgkUicNfhtKMKbp-4" target="YGo_0VgkUicNfhtKMKbp-5">
          <mxGeometry width="50" height="50" relative="1" as="geometry">
            <mxPoint x="902" y="436" as="sourcePoint" />
            <mxPoint x="952" y="386" as="targetPoint" />
          </mxGeometry>
        </mxCell>
        <mxCell id="YGo_0VgkUicNfhtKMKbp-13" value="&lt;b&gt;&lt;font color=&quot;#ff0000&quot;&gt;NO&lt;/font&gt;&lt;/b&gt;" style="text;html=1;strokeColor=none;fillColor=none;align=center;verticalAlign=middle;whiteSpace=wrap;rounded=0;" vertex="1" parent="WIyWlLk6GJQsqaUBKTNV-1">
          <mxGeometry x="846" y="397" width="60" height="30" as="geometry" />
        </mxCell>
        <mxCell id="YGo_0VgkUicNfhtKMKbp-15" value="&lt;b&gt;&lt;font color=&quot;#ff0000&quot;&gt;NO&lt;/font&gt;&lt;/b&gt;" style="text;html=1;strokeColor=none;fillColor=none;align=center;verticalAlign=middle;whiteSpace=wrap;rounded=0;" vertex="1" parent="WIyWlLk6GJQsqaUBKTNV-1">
          <mxGeometry x="1046" y="396" width="60" height="30" as="geometry" />
        </mxCell>
        <mxCell id="YGo_0VgkUicNfhtKMKbp-44" style="edgeStyle=orthogonalEdgeStyle;rounded=0;orthogonalLoop=1;jettySize=auto;html=1;exitX=0.5;exitY=1;exitDx=0;exitDy=0;entryX=0.5;entryY=0;entryDx=0;entryDy=0;fontSize=13;fontColor=#000099;strokeColor=#000099;" edge="1" parent="WIyWlLk6GJQsqaUBKTNV-1" source="YGo_0VgkUicNfhtKMKbp-16" target="YGo_0VgkUicNfhtKMKbp-43">
          <mxGeometry relative="1" as="geometry" />
        </mxCell>
        <mxCell id="YGo_0VgkUicNfhtKMKbp-71" style="edgeStyle=orthogonalEdgeStyle;rounded=0;orthogonalLoop=1;jettySize=auto;html=1;exitX=0;exitY=0.5;exitDx=0;exitDy=0;entryX=0.5;entryY=0;entryDx=0;entryDy=0;fontSize=13;fontColor=#000099;fillColor=#e51400;strokeColor=#B20000;" edge="1" parent="WIyWlLk6GJQsqaUBKTNV-1" source="YGo_0VgkUicNfhtKMKbp-16" target="YGo_0VgkUicNfhtKMKbp-70">
          <mxGeometry relative="1" as="geometry" />
        </mxCell>
        <mxCell id="YGo_0VgkUicNfhtKMKbp-16" value="&lt;font color=&quot;#000000&quot;&gt;키 값으로&lt;br&gt;정렬여부?&lt;/font&gt;" style="rhombus;whiteSpace=wrap;html=1;fontColor=#FF0000;fillColor=#FFF2CC;" vertex="1" parent="WIyWlLk6GJQsqaUBKTNV-1">
          <mxGeometry x="1215" y="646" width="150" height="74" as="geometry" />
        </mxCell>
        <mxCell id="YGo_0VgkUicNfhtKMKbp-18" value="&lt;b&gt;&lt;font color=&quot;#ff0000&quot;&gt;NO&lt;/font&gt;&lt;/b&gt;" style="text;html=1;strokeColor=none;fillColor=none;align=center;verticalAlign=middle;whiteSpace=wrap;rounded=0;" vertex="1" parent="WIyWlLk6GJQsqaUBKTNV-1">
          <mxGeometry x="1251" y="395" width="60" height="30" as="geometry" />
        </mxCell>
        <mxCell id="YGo_0VgkUicNfhtKMKbp-50" style="edgeStyle=orthogonalEdgeStyle;rounded=0;orthogonalLoop=1;jettySize=auto;html=1;exitX=0.5;exitY=1;exitDx=0;exitDy=0;fontSize=13;fontColor=#000099;strokeColor=#000099;" edge="1" parent="WIyWlLk6GJQsqaUBKTNV-1" source="YGo_0VgkUicNfhtKMKbp-19">
          <mxGeometry relative="1" as="geometry">
            <mxPoint x="1290.9999999999995" y="740" as="targetPoint" />
            <Array as="points">
              <mxPoint x="636" y="740" />
            </Array>
          </mxGeometry>
        </mxCell>
        <mxCell id="YGo_0VgkUicNfhtKMKbp-103" style="edgeStyle=orthogonalEdgeStyle;rounded=0;orthogonalLoop=1;jettySize=auto;html=1;exitX=0;exitY=0.5;exitDx=0;exitDy=0;fontSize=13;fontColor=#000099;" edge="1" parent="WIyWlLk6GJQsqaUBKTNV-1" source="YGo_0VgkUicNfhtKMKbp-19" target="YGo_0VgkUicNfhtKMKbp-77">
          <mxGeometry relative="1" as="geometry" />
        </mxCell>
        <mxCell id="YGo_0VgkUicNfhtKMKbp-19" value="자료를 키값으로&lt;br&gt;찾아야하나?" style="rhombus;whiteSpace=wrap;html=1;fontColor=#000000;fillColor=#FFF2CC;" vertex="1" parent="WIyWlLk6GJQsqaUBKTNV-1">
          <mxGeometry x="565" y="566" width="140" height="90" as="geometry" />
        </mxCell>
        <mxCell id="YGo_0VgkUicNfhtKMKbp-31" value="&lt;font style=&quot;font-size: 19px&quot;&gt;&lt;b&gt;STACK&lt;/b&gt;&lt;/font&gt;" style="rounded=0;whiteSpace=wrap;html=1;fontColor=#000000;fillColor=#FFFF00;" vertex="1" parent="WIyWlLk6GJQsqaUBKTNV-1">
          <mxGeometry x="717" y="526" width="130" height="40" as="geometry" />
        </mxCell>
        <mxCell id="YGo_0VgkUicNfhtKMKbp-32" value="&lt;span style=&quot;font-size: 19px&quot;&gt;&lt;b&gt;QUEUE&lt;/b&gt;&lt;/span&gt;" style="rounded=0;whiteSpace=wrap;html=1;fontColor=#000000;fillColor=#FFFF00;" vertex="1" parent="WIyWlLk6GJQsqaUBKTNV-1">
          <mxGeometry x="912" y="526" width="130" height="40" as="geometry" />
        </mxCell>
        <mxCell id="YGo_0VgkUicNfhtKMKbp-33" value="&lt;span style=&quot;font-size: 19px&quot;&gt;&lt;b&gt;Priority_Queue&lt;/b&gt;&lt;/span&gt;" style="rounded=0;whiteSpace=wrap;html=1;fontColor=#000000;fillColor=#FFFF00;" vertex="1" parent="WIyWlLk6GJQsqaUBKTNV-1">
          <mxGeometry x="1110.5" y="526" width="153" height="40" as="geometry" />
        </mxCell>
        <mxCell id="YGo_0VgkUicNfhtKMKbp-38" value="&lt;font style=&quot;font-size: 13px&quot; color=&quot;#000099&quot;&gt;&lt;b&gt;YES&lt;/b&gt;&lt;/font&gt;" style="text;html=1;align=center;verticalAlign=middle;resizable=0;points=[];autosize=1;strokeColor=none;fillColor=none;fontSize=19;fontColor=#000000;" vertex="1" parent="WIyWlLk6GJQsqaUBKTNV-1">
          <mxGeometry x="785" y="476" width="40" height="30" as="geometry" />
        </mxCell>
        <mxCell id="YGo_0VgkUicNfhtKMKbp-39" value="&lt;font style=&quot;font-size: 13px&quot; color=&quot;#000099&quot;&gt;&lt;b&gt;YES&lt;/b&gt;&lt;/font&gt;" style="text;html=1;align=center;verticalAlign=middle;resizable=0;points=[];autosize=1;strokeColor=none;fillColor=none;fontSize=19;fontColor=#000000;" vertex="1" parent="WIyWlLk6GJQsqaUBKTNV-1">
          <mxGeometry x="985" y="476" width="40" height="30" as="geometry" />
        </mxCell>
        <mxCell id="YGo_0VgkUicNfhtKMKbp-40" value="&lt;font style=&quot;font-size: 13px&quot; color=&quot;#000099&quot;&gt;&lt;b&gt;YES&lt;/b&gt;&lt;/font&gt;" style="text;html=1;align=center;verticalAlign=middle;resizable=0;points=[];autosize=1;strokeColor=none;fillColor=none;fontSize=19;fontColor=#000000;" vertex="1" parent="WIyWlLk6GJQsqaUBKTNV-1">
          <mxGeometry x="1195" y="476" width="40" height="30" as="geometry" />
        </mxCell>
        <mxCell id="YGo_0VgkUicNfhtKMKbp-41" value="&lt;font style=&quot;font-size: 13px&quot; color=&quot;#000099&quot;&gt;&lt;b&gt;YES&lt;/b&gt;&lt;/font&gt;" style="text;html=1;align=center;verticalAlign=middle;resizable=0;points=[];autosize=1;strokeColor=none;fillColor=none;fontSize=19;fontColor=#000000;" vertex="1" parent="WIyWlLk6GJQsqaUBKTNV-1">
          <mxGeometry x="785" y="326" width="40" height="30" as="geometry" />
        </mxCell>
        <mxCell id="YGo_0VgkUicNfhtKMKbp-42" value="&lt;b&gt;&lt;font color=&quot;#ff0000&quot;&gt;NO&lt;/font&gt;&lt;/b&gt;" style="text;html=1;strokeColor=none;fillColor=none;align=center;verticalAlign=middle;whiteSpace=wrap;rounded=0;" vertex="1" parent="WIyWlLk6GJQsqaUBKTNV-1">
          <mxGeometry x="631" y="240" width="60" height="30" as="geometry" />
        </mxCell>
        <mxCell id="YGo_0VgkUicNfhtKMKbp-46" style="edgeStyle=orthogonalEdgeStyle;rounded=0;orthogonalLoop=1;jettySize=auto;html=1;exitX=0.5;exitY=1;exitDx=0;exitDy=0;entryX=0.5;entryY=0;entryDx=0;entryDy=0;fontSize=13;fontColor=#000099;strokeColor=#000099;" edge="1" parent="WIyWlLk6GJQsqaUBKTNV-1" source="YGo_0VgkUicNfhtKMKbp-43" target="YGo_0VgkUicNfhtKMKbp-45">
          <mxGeometry relative="1" as="geometry" />
        </mxCell>
        <mxCell id="YGo_0VgkUicNfhtKMKbp-59" style="edgeStyle=orthogonalEdgeStyle;rounded=0;orthogonalLoop=1;jettySize=auto;html=1;exitX=0;exitY=0.5;exitDx=0;exitDy=0;entryX=0.5;entryY=0;entryDx=0;entryDy=0;fontSize=13;fontColor=#000099;fillColor=#e51400;strokeColor=#B20000;" edge="1" parent="WIyWlLk6GJQsqaUBKTNV-1" source="YGo_0VgkUicNfhtKMKbp-43" target="YGo_0VgkUicNfhtKMKbp-58">
          <mxGeometry relative="1" as="geometry" />
        </mxCell>
        <mxCell id="YGo_0VgkUicNfhtKMKbp-43" value="&lt;font color=&quot;#000000&quot;&gt;중복 허용&lt;/font&gt;" style="rhombus;whiteSpace=wrap;html=1;fontColor=#FF0000;fillColor=#FFF2CC;" vertex="1" parent="WIyWlLk6GJQsqaUBKTNV-1">
          <mxGeometry x="1215" y="771" width="150" height="74" as="geometry" />
        </mxCell>
        <mxCell id="YGo_0VgkUicNfhtKMKbp-55" style="edgeStyle=orthogonalEdgeStyle;rounded=0;orthogonalLoop=1;jettySize=auto;html=1;exitX=0.5;exitY=1;exitDx=0;exitDy=0;entryX=0.5;entryY=0;entryDx=0;entryDy=0;fontSize=13;fontColor=#000099;strokeColor=#000099;" edge="1" parent="WIyWlLk6GJQsqaUBKTNV-1" source="YGo_0VgkUicNfhtKMKbp-45" target="YGo_0VgkUicNfhtKMKbp-53">
          <mxGeometry relative="1" as="geometry" />
        </mxCell>
        <mxCell id="YGo_0VgkUicNfhtKMKbp-56" style="edgeStyle=orthogonalEdgeStyle;rounded=0;orthogonalLoop=1;jettySize=auto;html=1;exitX=1;exitY=0.5;exitDx=0;exitDy=0;entryX=0.5;entryY=0;entryDx=0;entryDy=0;fontSize=13;fontColor=#000099;fillColor=#e51400;strokeColor=#B20000;" edge="1" parent="WIyWlLk6GJQsqaUBKTNV-1" source="YGo_0VgkUicNfhtKMKbp-45" target="YGo_0VgkUicNfhtKMKbp-54">
          <mxGeometry relative="1" as="geometry" />
        </mxCell>
        <mxCell id="YGo_0VgkUicNfhtKMKbp-45" value="&lt;font color=&quot;#000000&quot;&gt;키값 따로&lt;br&gt;저장여부?&lt;br&gt;&lt;/font&gt;" style="rhombus;whiteSpace=wrap;html=1;fontColor=#FF0000;fillColor=#FFF2CC;" vertex="1" parent="WIyWlLk6GJQsqaUBKTNV-1">
          <mxGeometry x="1215" y="890" width="150" height="74" as="geometry" />
        </mxCell>
        <mxCell id="YGo_0VgkUicNfhtKMKbp-47" value="&lt;font style=&quot;font-size: 13px&quot; color=&quot;#000099&quot;&gt;&lt;b&gt;YES&lt;/b&gt;&lt;/font&gt;" style="text;html=1;align=center;verticalAlign=middle;resizable=0;points=[];autosize=1;strokeColor=none;fillColor=none;fontSize=19;fontColor=#000000;" vertex="1" parent="WIyWlLk6GJQsqaUBKTNV-1">
          <mxGeometry x="1291" y="720" width="40" height="30" as="geometry" />
        </mxCell>
        <mxCell id="YGo_0VgkUicNfhtKMKbp-48" value="&lt;font style=&quot;font-size: 13px&quot; color=&quot;#000099&quot;&gt;&lt;b&gt;YES&lt;/b&gt;&lt;/font&gt;" style="text;html=1;align=center;verticalAlign=middle;resizable=0;points=[];autosize=1;strokeColor=none;fillColor=none;fontSize=19;fontColor=#000000;" vertex="1" parent="WIyWlLk6GJQsqaUBKTNV-1">
          <mxGeometry x="1251" y="850" width="40" height="30" as="geometry" />
        </mxCell>
        <mxCell id="YGo_0VgkUicNfhtKMKbp-51" value="&lt;font style=&quot;font-size: 13px&quot; color=&quot;#000099&quot;&gt;&lt;b&gt;YES&lt;/b&gt;&lt;/font&gt;" style="text;html=1;align=center;verticalAlign=middle;resizable=0;points=[];autosize=1;strokeColor=none;fillColor=none;fontSize=19;fontColor=#000000;" vertex="1" parent="WIyWlLk6GJQsqaUBKTNV-1">
          <mxGeometry x="641" y="711" width="40" height="30" as="geometry" />
        </mxCell>
        <mxCell id="YGo_0VgkUicNfhtKMKbp-53" value="&lt;span style=&quot;font-size: 19px&quot;&gt;&lt;b&gt;multi_map&lt;/b&gt;&lt;/span&gt;&lt;span style=&quot;color: rgba(0 , 0 , 0 , 0) ; font-family: monospace ; font-size: 0px&quot;&gt;%3CmxGraphModel%3E%3Croot%3E%3CmxCell%20id%3D%220%22%2F%3E%3CmxCell%20id%3D%221%22%20parent%3D%220%22%2F%3E%3CmxCell%20id%3D%222%22%20value%3D%22%26lt%3Bspan%20style%3D%26quot%3Bfont-size%3A%2019px%26quot%3B%26gt%3B%26lt%3Bb%26gt%3BPriority_Queue%26lt%3B%2Fb%26gt%3B%26lt%3B%2Fspan%26gt%3B%22%20style%3D%22rounded%3D0%3BwhiteSpace%3Dwrap%3Bhtml%3D1%3BfontColor%3D%23000000%3B%22%20vertex%3D%221%22%20parent%3D%221%22%3E%3CmxGeometry%20x%3D%22675.5%22%20y%3D%22476%22%20width%3D%22153%22%20height%3D%2240%22%20as%3D%22geometry%22%2F%3E%3C%2FmxCell%3E%3C%2Froot%3E%3C%2FmxGraphModel%3E&lt;/span&gt;" style="rounded=0;whiteSpace=wrap;html=1;fontColor=#000000;fillColor=#FFFF00;" vertex="1" parent="WIyWlLk6GJQsqaUBKTNV-1">
          <mxGeometry x="1213.5" y="1051" width="153" height="40" as="geometry" />
        </mxCell>
        <mxCell id="YGo_0VgkUicNfhtKMKbp-54" value="&lt;span style=&quot;font-size: 19px&quot;&gt;&lt;b&gt;multi_set&lt;/b&gt;&lt;/span&gt;" style="rounded=0;whiteSpace=wrap;html=1;fontColor=#000000;fillColor=#FFFF00;" vertex="1" parent="WIyWlLk6GJQsqaUBKTNV-1">
          <mxGeometry x="1415" y="1051" width="153" height="40" as="geometry" />
        </mxCell>
        <mxCell id="YGo_0VgkUicNfhtKMKbp-57" value="&lt;b&gt;&lt;font color=&quot;#ff0000&quot;&gt;NO&lt;/font&gt;&lt;/b&gt;" style="text;html=1;strokeColor=none;fillColor=none;align=center;verticalAlign=middle;whiteSpace=wrap;rounded=0;" vertex="1" parent="WIyWlLk6GJQsqaUBKTNV-1">
          <mxGeometry x="1365" y="900" width="60" height="30" as="geometry" />
        </mxCell>
        <mxCell id="YGo_0VgkUicNfhtKMKbp-64" style="edgeStyle=orthogonalEdgeStyle;rounded=0;orthogonalLoop=1;jettySize=auto;html=1;exitX=0.5;exitY=1;exitDx=0;exitDy=0;entryX=0.448;entryY=-0.007;entryDx=0;entryDy=0;entryPerimeter=0;fontSize=13;fontColor=#000099;strokeColor=#000099;" edge="1" parent="WIyWlLk6GJQsqaUBKTNV-1" source="YGo_0VgkUicNfhtKMKbp-58" target="YGo_0VgkUicNfhtKMKbp-62">
          <mxGeometry relative="1" as="geometry" />
        </mxCell>
        <mxCell id="YGo_0VgkUicNfhtKMKbp-65" style="edgeStyle=orthogonalEdgeStyle;rounded=0;orthogonalLoop=1;jettySize=auto;html=1;exitX=1;exitY=0.5;exitDx=0;exitDy=0;entryX=0.5;entryY=0;entryDx=0;entryDy=0;fontSize=13;fontColor=#000099;fillColor=#e51400;strokeColor=#B20000;" edge="1" parent="WIyWlLk6GJQsqaUBKTNV-1" source="YGo_0VgkUicNfhtKMKbp-58" target="YGo_0VgkUicNfhtKMKbp-63">
          <mxGeometry relative="1" as="geometry" />
        </mxCell>
        <mxCell id="YGo_0VgkUicNfhtKMKbp-58" value="&lt;font color=&quot;#000000&quot;&gt;키값 따로&lt;br&gt;저장여부?&lt;br&gt;&lt;/font&gt;" style="rhombus;whiteSpace=wrap;html=1;fontColor=#FF0000;fillColor=#FFF2CC;" vertex="1" parent="WIyWlLk6GJQsqaUBKTNV-1">
          <mxGeometry x="835" y="910" width="150" height="74" as="geometry" />
        </mxCell>
        <mxCell id="YGo_0VgkUicNfhtKMKbp-60" value="&lt;b&gt;&lt;font color=&quot;#ff0000&quot;&gt;NO&lt;/font&gt;&lt;/b&gt;" style="text;html=1;strokeColor=none;fillColor=none;align=center;verticalAlign=middle;whiteSpace=wrap;rounded=0;" vertex="1" parent="WIyWlLk6GJQsqaUBKTNV-1">
          <mxGeometry x="1062" y="780" width="63" height="30" as="geometry" />
        </mxCell>
        <mxCell id="YGo_0VgkUicNfhtKMKbp-62" value="&lt;span style=&quot;font-size: 19px&quot;&gt;&lt;b&gt;map&lt;/b&gt;&lt;/span&gt;" style="rounded=0;whiteSpace=wrap;html=1;fontColor=#000000;fillColor=#FFFF00;" vertex="1" parent="WIyWlLk6GJQsqaUBKTNV-1">
          <mxGeometry x="841.5" y="1051" width="153" height="40" as="geometry" />
        </mxCell>
        <mxCell id="YGo_0VgkUicNfhtKMKbp-63" value="&lt;span style=&quot;font-size: 19px&quot;&gt;&lt;b&gt;set&lt;/b&gt;&lt;/span&gt;" style="rounded=0;whiteSpace=wrap;html=1;fontColor=#000000;fillColor=#FFFF00;" vertex="1" parent="WIyWlLk6GJQsqaUBKTNV-1">
          <mxGeometry x="1042" y="1051" width="153" height="40" as="geometry" />
        </mxCell>
        <mxCell id="YGo_0VgkUicNfhtKMKbp-66" value="&lt;b&gt;&lt;font color=&quot;#ff0000&quot;&gt;NO&lt;/font&gt;&lt;/b&gt;" style="text;html=1;strokeColor=none;fillColor=none;align=center;verticalAlign=middle;whiteSpace=wrap;rounded=0;" vertex="1" parent="WIyWlLk6GJQsqaUBKTNV-1">
          <mxGeometry x="982" y="910" width="60" height="30" as="geometry" />
        </mxCell>
        <mxCell id="YGo_0VgkUicNfhtKMKbp-68" value="&lt;font style=&quot;font-size: 13px&quot; color=&quot;#000099&quot;&gt;&lt;b&gt;YES&lt;/b&gt;&lt;/font&gt;" style="text;html=1;align=center;verticalAlign=middle;resizable=0;points=[];autosize=1;strokeColor=none;fillColor=none;fontSize=19;fontColor=#000000;" vertex="1" parent="WIyWlLk6GJQsqaUBKTNV-1">
          <mxGeometry x="1251" y="984" width="40" height="30" as="geometry" />
        </mxCell>
        <mxCell id="YGo_0VgkUicNfhtKMKbp-69" value="&lt;font style=&quot;font-size: 13px&quot; color=&quot;#000099&quot;&gt;&lt;b&gt;YES&lt;/b&gt;&lt;/font&gt;" style="text;html=1;align=center;verticalAlign=middle;resizable=0;points=[];autosize=1;strokeColor=none;fillColor=none;fontSize=19;fontColor=#000000;" vertex="1" parent="WIyWlLk6GJQsqaUBKTNV-1">
          <mxGeometry x="867" y="997" width="40" height="30" as="geometry" />
        </mxCell>
        <mxCell id="YGo_0VgkUicNfhtKMKbp-78" style="edgeStyle=orthogonalEdgeStyle;rounded=0;orthogonalLoop=1;jettySize=auto;html=1;exitX=1;exitY=0.5;exitDx=0;exitDy=0;entryX=0.5;entryY=0;entryDx=0;entryDy=0;fontSize=13;fontColor=#000099;fillColor=#e51400;strokeColor=#B20000;" edge="1" parent="WIyWlLk6GJQsqaUBKTNV-1" source="YGo_0VgkUicNfhtKMKbp-70" target="YGo_0VgkUicNfhtKMKbp-73">
          <mxGeometry relative="1" as="geometry" />
        </mxCell>
        <mxCell id="YGo_0VgkUicNfhtKMKbp-102" style="edgeStyle=orthogonalEdgeStyle;rounded=0;orthogonalLoop=1;jettySize=auto;html=1;exitX=0.5;exitY=1;exitDx=0;exitDy=0;entryX=0.5;entryY=0;entryDx=0;entryDy=0;fontSize=13;fontColor=#000099;strokeColor=#000099;" edge="1" parent="WIyWlLk6GJQsqaUBKTNV-1" source="YGo_0VgkUicNfhtKMKbp-70" target="YGo_0VgkUicNfhtKMKbp-85">
          <mxGeometry relative="1" as="geometry" />
        </mxCell>
        <mxCell id="YGo_0VgkUicNfhtKMKbp-70" value="&lt;font color=&quot;#000000&quot;&gt;중간에 삽입 삭제가&lt;br&gt;일어났는가?&lt;br&gt;&lt;/font&gt;" style="rhombus;whiteSpace=wrap;html=1;fontColor=#FF0000;fillColor=#FFF2CC;" vertex="1" parent="WIyWlLk6GJQsqaUBKTNV-1">
          <mxGeometry x="122" y="745" width="150" height="105" as="geometry" />
        </mxCell>
        <mxCell id="YGo_0VgkUicNfhtKMKbp-72" value="&lt;b&gt;&lt;font color=&quot;#ff0000&quot;&gt;NO&lt;/font&gt;&lt;/b&gt;" style="text;html=1;strokeColor=none;fillColor=none;align=center;verticalAlign=middle;whiteSpace=wrap;rounded=0;" vertex="1" parent="WIyWlLk6GJQsqaUBKTNV-1">
          <mxGeometry x="1155.5" y="656" width="63" height="30" as="geometry" />
        </mxCell>
        <mxCell id="YGo_0VgkUicNfhtKMKbp-79" style="edgeStyle=orthogonalEdgeStyle;rounded=0;orthogonalLoop=1;jettySize=auto;html=1;exitX=0.5;exitY=1;exitDx=0;exitDy=0;fontSize=13;fontColor=#000099;" edge="1" parent="WIyWlLk6GJQsqaUBKTNV-1" source="YGo_0VgkUicNfhtKMKbp-73" target="YGo_0VgkUicNfhtKMKbp-74">
          <mxGeometry relative="1" as="geometry" />
        </mxCell>
        <mxCell id="YGo_0VgkUicNfhtKMKbp-80" style="edgeStyle=orthogonalEdgeStyle;rounded=0;orthogonalLoop=1;jettySize=auto;html=1;exitX=0;exitY=0.5;exitDx=0;exitDy=0;entryX=0.5;entryY=0;entryDx=0;entryDy=0;fontSize=13;fontColor=#000099;" edge="1" parent="WIyWlLk6GJQsqaUBKTNV-1" source="YGo_0VgkUicNfhtKMKbp-73" target="YGo_0VgkUicNfhtKMKbp-75">
          <mxGeometry relative="1" as="geometry" />
        </mxCell>
        <mxCell id="YGo_0VgkUicNfhtKMKbp-73" value="&lt;font color=&quot;#000000&quot;&gt;맨 앞에서 삽입삭제가&lt;br&gt;일어났는가&lt;br&gt;&lt;/font&gt;" style="rhombus;whiteSpace=wrap;html=1;fontColor=#FF0000;fillColor=#FFF2CC;" vertex="1" parent="WIyWlLk6GJQsqaUBKTNV-1">
          <mxGeometry x="657" y="860" width="149" height="113" as="geometry" />
        </mxCell>
        <mxCell id="YGo_0VgkUicNfhtKMKbp-90" style="edgeStyle=orthogonalEdgeStyle;rounded=0;orthogonalLoop=1;jettySize=auto;html=1;exitX=0;exitY=0.5;exitDx=0;exitDy=0;entryX=0.66;entryY=0;entryDx=0;entryDy=0;entryPerimeter=0;fontSize=13;fontColor=#000099;fillColor=#e51400;strokeColor=#B20000;" edge="1" parent="WIyWlLk6GJQsqaUBKTNV-1" source="YGo_0VgkUicNfhtKMKbp-74" target="YGo_0VgkUicNfhtKMKbp-83">
          <mxGeometry relative="1" as="geometry" />
        </mxCell>
        <mxCell id="YGo_0VgkUicNfhtKMKbp-74" value="&lt;font color=&quot;#000000&quot;&gt;집합체를 합쳐야&lt;br&gt;할 일이 있는가&lt;br&gt;&lt;/font&gt;" style="rhombus;whiteSpace=wrap;html=1;fontColor=#FF0000;fillColor=#FFF2CC;" vertex="1" parent="WIyWlLk6GJQsqaUBKTNV-1">
          <mxGeometry x="656" y="1033" width="150" height="96" as="geometry" />
        </mxCell>
        <mxCell id="YGo_0VgkUicNfhtKMKbp-81" style="edgeStyle=orthogonalEdgeStyle;rounded=0;orthogonalLoop=1;jettySize=auto;html=1;exitX=0.5;exitY=1;exitDx=0;exitDy=0;entryX=0.5;entryY=0;entryDx=0;entryDy=0;fontSize=13;fontColor=#000099;strokeColor=#000099;" edge="1" parent="WIyWlLk6GJQsqaUBKTNV-1" source="YGo_0VgkUicNfhtKMKbp-75" target="YGo_0VgkUicNfhtKMKbp-76">
          <mxGeometry relative="1" as="geometry" />
        </mxCell>
        <mxCell id="YGo_0VgkUicNfhtKMKbp-75" value="&lt;font color=&quot;#000000&quot;&gt;N번째 요소를&lt;br&gt;찾을 일이 있는가?&lt;br&gt;&lt;/font&gt;" style="rhombus;whiteSpace=wrap;html=1;fontColor=#FF0000;fillColor=#FFF2CC;" vertex="1" parent="WIyWlLk6GJQsqaUBKTNV-1">
          <mxGeometry x="451" y="973" width="150" height="74" as="geometry" />
        </mxCell>
        <mxCell id="YGo_0VgkUicNfhtKMKbp-92" style="edgeStyle=orthogonalEdgeStyle;rounded=0;orthogonalLoop=1;jettySize=auto;html=1;exitX=0;exitY=0.5;exitDx=0;exitDy=0;entryX=0.5;entryY=0;entryDx=0;entryDy=0;fontSize=13;fontColor=#000099;fillColor=#e51400;strokeColor=#B20000;" edge="1" parent="WIyWlLk6GJQsqaUBKTNV-1" source="YGo_0VgkUicNfhtKMKbp-76" target="YGo_0VgkUicNfhtKMKbp-84">
          <mxGeometry relative="1" as="geometry" />
        </mxCell>
        <mxCell id="YGo_0VgkUicNfhtKMKbp-94" value="" style="edgeStyle=orthogonalEdgeStyle;rounded=0;orthogonalLoop=1;jettySize=auto;html=1;fontSize=13;fontColor=#000099;strokeColor=#000099;" edge="1" parent="WIyWlLk6GJQsqaUBKTNV-1" source="YGo_0VgkUicNfhtKMKbp-76" target="YGo_0VgkUicNfhtKMKbp-83">
          <mxGeometry relative="1" as="geometry" />
        </mxCell>
        <mxCell id="YGo_0VgkUicNfhtKMKbp-76" value="&lt;font color=&quot;#000000&quot;&gt;사이즈 종류가&lt;br&gt;다양한가?&lt;br&gt;&lt;/font&gt;" style="rhombus;whiteSpace=wrap;html=1;fontColor=#FF0000;fillColor=#FFF2CC;" vertex="1" parent="WIyWlLk6GJQsqaUBKTNV-1">
          <mxGeometry x="451" y="1122" width="150" height="108" as="geometry" />
        </mxCell>
        <mxCell id="YGo_0VgkUicNfhtKMKbp-82" style="edgeStyle=orthogonalEdgeStyle;rounded=0;orthogonalLoop=1;jettySize=auto;html=1;exitX=1;exitY=0.5;exitDx=0;exitDy=0;fontSize=13;fontColor=#000099;fillColor=#e51400;strokeColor=#B20000;" edge="1" parent="WIyWlLk6GJQsqaUBKTNV-1" source="YGo_0VgkUicNfhtKMKbp-77">
          <mxGeometry relative="1" as="geometry">
            <mxPoint x="526" y="1086.9411764705883" as="targetPoint" />
          </mxGeometry>
        </mxCell>
        <mxCell id="YGo_0VgkUicNfhtKMKbp-93" style="edgeStyle=orthogonalEdgeStyle;rounded=0;orthogonalLoop=1;jettySize=auto;html=1;exitX=0;exitY=0.5;exitDx=0;exitDy=0;entryX=0.75;entryY=0;entryDx=0;entryDy=0;fontSize=13;fontColor=#000099;strokeColor=#000099;" edge="1" parent="WIyWlLk6GJQsqaUBKTNV-1" source="YGo_0VgkUicNfhtKMKbp-77" target="YGo_0VgkUicNfhtKMKbp-85">
          <mxGeometry relative="1" as="geometry" />
        </mxCell>
        <mxCell id="YGo_0VgkUicNfhtKMKbp-77" value="&lt;font color=&quot;#000000&quot;&gt;집합체를 합쳐야&lt;br&gt;할 일이 있는가?&lt;br&gt;&lt;/font&gt;" style="rhombus;whiteSpace=wrap;html=1;fontColor=#FF0000;fillColor=#FFF2CC;" vertex="1" parent="WIyWlLk6GJQsqaUBKTNV-1">
          <mxGeometry x="274" y="1042" width="150" height="89" as="geometry" />
        </mxCell>
        <mxCell id="YGo_0VgkUicNfhtKMKbp-83" value="&lt;span style=&quot;font-size: 19px&quot;&gt;&lt;b&gt;DEQUE&lt;/b&gt;&lt;/span&gt;" style="rounded=0;whiteSpace=wrap;html=1;fontColor=#000000;fillColor=#FFFF00;" vertex="1" parent="WIyWlLk6GJQsqaUBKTNV-1">
          <mxGeometry x="535" y="1320" width="153" height="40" as="geometry" />
        </mxCell>
        <mxCell id="YGo_0VgkUicNfhtKMKbp-84" value="&lt;span style=&quot;font-size: 19px&quot;&gt;&lt;b&gt;VECTOR&lt;/b&gt;&lt;/span&gt;" style="rounded=0;whiteSpace=wrap;html=1;fontColor=#000000;fillColor=#FFFF00;" vertex="1" parent="WIyWlLk6GJQsqaUBKTNV-1">
          <mxGeometry x="331" y="1320" width="153" height="40" as="geometry" />
        </mxCell>
        <mxCell id="YGo_0VgkUicNfhtKMKbp-85" value="&lt;span style=&quot;font-size: 19px&quot;&gt;&lt;b&gt;LIST&lt;/b&gt;&lt;/span&gt;" style="rounded=0;whiteSpace=wrap;html=1;fontColor=#000000;fillColor=#FFFF00;" vertex="1" parent="WIyWlLk6GJQsqaUBKTNV-1">
          <mxGeometry x="120" y="1320" width="153" height="40" as="geometry" />
        </mxCell>
        <mxCell id="YGo_0VgkUicNfhtKMKbp-88" value="" style="endArrow=none;html=1;rounded=0;fontSize=13;fontColor=#000099;entryX=0.5;entryY=1;entryDx=0;entryDy=0;strokeColor=#000099;" edge="1" parent="WIyWlLk6GJQsqaUBKTNV-1" target="YGo_0VgkUicNfhtKMKbp-74">
          <mxGeometry width="50" height="50" relative="1" as="geometry">
            <mxPoint x="196" y="1480" as="sourcePoint" />
            <mxPoint x="796" y="1370" as="targetPoint" />
            <Array as="points">
              <mxPoint x="731" y="1480" />
            </Array>
          </mxGeometry>
        </mxCell>
        <mxCell id="YGo_0VgkUicNfhtKMKbp-89" value="" style="endArrow=classic;html=1;rounded=0;fontSize=13;fontColor=#000099;entryX=0.5;entryY=1;entryDx=0;entryDy=0;strokeColor=#000099;" edge="1" parent="WIyWlLk6GJQsqaUBKTNV-1" target="YGo_0VgkUicNfhtKMKbp-85">
          <mxGeometry width="50" height="50" relative="1" as="geometry">
            <mxPoint x="196" y="1480" as="sourcePoint" />
            <mxPoint x="246" y="1410" as="targetPoint" />
          </mxGeometry>
        </mxCell>
        <mxCell id="YGo_0VgkUicNfhtKMKbp-95" value="&lt;font style=&quot;font-size: 13px&quot; color=&quot;#000099&quot;&gt;&lt;b&gt;YES&lt;/b&gt;&lt;/font&gt;" style="text;html=1;align=center;verticalAlign=middle;resizable=0;points=[];autosize=1;strokeColor=none;fillColor=none;fontSize=19;fontColor=#000000;" vertex="1" parent="WIyWlLk6GJQsqaUBKTNV-1">
          <mxGeometry x="546" y="1240" width="40" height="30" as="geometry" />
        </mxCell>
        <mxCell id="YGo_0VgkUicNfhtKMKbp-96" value="&lt;font style=&quot;font-size: 13px&quot; color=&quot;#000099&quot;&gt;&lt;b&gt;YES&lt;/b&gt;&lt;/font&gt;" style="text;html=1;align=center;verticalAlign=middle;resizable=0;points=[];autosize=1;strokeColor=none;fillColor=none;fontSize=19;fontColor=#000000;" vertex="1" parent="WIyWlLk6GJQsqaUBKTNV-1">
          <mxGeometry x="525" y="1051" width="40" height="30" as="geometry" />
        </mxCell>
        <mxCell id="YGo_0VgkUicNfhtKMKbp-97" value="&lt;b&gt;&lt;font color=&quot;#ff0000&quot;&gt;NO&lt;/font&gt;&lt;/b&gt;" style="text;html=1;strokeColor=none;fillColor=none;align=center;verticalAlign=middle;whiteSpace=wrap;rounded=0;" vertex="1" parent="WIyWlLk6GJQsqaUBKTNV-1">
          <mxGeometry x="621" y="1110" width="60" height="30" as="geometry" />
        </mxCell>
        <mxCell id="YGo_0VgkUicNfhtKMKbp-98" value="&lt;b&gt;&lt;font color=&quot;#ff0000&quot;&gt;NO&lt;/font&gt;&lt;/b&gt;" style="text;html=1;strokeColor=none;fillColor=none;align=center;verticalAlign=middle;whiteSpace=wrap;rounded=0;" vertex="1" parent="WIyWlLk6GJQsqaUBKTNV-1">
          <mxGeometry x="406" y="1150" width="60" height="30" as="geometry" />
        </mxCell>
        <mxCell id="YGo_0VgkUicNfhtKMKbp-99" value="&lt;b&gt;&lt;font color=&quot;#ff0000&quot;&gt;NO&lt;/font&gt;&lt;/b&gt;" style="text;html=1;strokeColor=none;fillColor=none;align=center;verticalAlign=middle;whiteSpace=wrap;rounded=0;" vertex="1" parent="WIyWlLk6GJQsqaUBKTNV-1">
          <mxGeometry x="406" y="1061" width="60" height="30" as="geometry" />
        </mxCell>
        <mxCell id="YGo_0VgkUicNfhtKMKbp-100" value="&lt;font style=&quot;font-size: 13px&quot; color=&quot;#000099&quot;&gt;&lt;b&gt;YES&lt;/b&gt;&lt;/font&gt;" style="text;html=1;align=center;verticalAlign=middle;resizable=0;points=[];autosize=1;strokeColor=none;fillColor=none;fontSize=19;fontColor=#000000;" vertex="1" parent="WIyWlLk6GJQsqaUBKTNV-1">
          <mxGeometry x="233" y="1061" width="40" height="30" as="geometry" />
        </mxCell>
        <mxCell id="YGo_0VgkUicNfhtKMKbp-101" value="&lt;b&gt;&lt;font color=&quot;#ff0000&quot;&gt;NO&lt;/font&gt;&lt;/b&gt;" style="text;html=1;strokeColor=none;fillColor=none;align=center;verticalAlign=middle;whiteSpace=wrap;rounded=0;" vertex="1" parent="WIyWlLk6GJQsqaUBKTNV-1">
          <mxGeometry x="271" y="771" width="60" height="30" as="geometry" />
        </mxCell>
        <mxCell id="YGo_0VgkUicNfhtKMKbp-104" value="&lt;b&gt;&lt;font color=&quot;#ff0000&quot;&gt;NO&lt;/font&gt;&lt;/b&gt;" style="text;html=1;strokeColor=none;fillColor=none;align=center;verticalAlign=middle;whiteSpace=wrap;rounded=0;" vertex="1" parent="WIyWlLk6GJQsqaUBKTNV-1">
          <mxGeometry x="496" y="590" width="60" height="30" as="geometry" />
        </mxCell>
        <mxCell id="YGo_0VgkUicNfhtKMKbp-105" value="&lt;font style=&quot;font-size: 13px&quot; color=&quot;#000099&quot;&gt;&lt;b&gt;YES&lt;/b&gt;&lt;/font&gt;" style="text;html=1;align=center;verticalAlign=middle;resizable=0;points=[];autosize=1;strokeColor=none;fillColor=none;fontSize=19;fontColor=#000000;" vertex="1" parent="WIyWlLk6GJQsqaUBKTNV-1">
          <mxGeometry x="731" y="1129" width="40" height="30" as="geometry" />
        </mxCell>
        <mxCell id="YGo_0VgkUicNfhtKMKbp-106" value="&lt;font style=&quot;font-size: 13px&quot; color=&quot;#000099&quot;&gt;&lt;b&gt;YES&lt;/b&gt;&lt;/font&gt;" style="text;html=1;align=center;verticalAlign=middle;resizable=0;points=[];autosize=1;strokeColor=none;fillColor=none;fontSize=19;fontColor=#000000;" vertex="1" parent="WIyWlLk6GJQsqaUBKTNV-1">
          <mxGeometry x="691" y="984" width="40" height="30" as="geometry" />
        </mxCell>
        <mxCell id="YGo_0VgkUicNfhtKMKbp-107" value="&lt;b&gt;&lt;font color=&quot;#ff0000&quot;&gt;NO&lt;/font&gt;&lt;/b&gt;" style="text;html=1;strokeColor=none;fillColor=none;align=center;verticalAlign=middle;whiteSpace=wrap;rounded=0;" vertex="1" parent="WIyWlLk6GJQsqaUBKTNV-1">
          <mxGeometry x="605" y="890" width="60" height="30" as="geometry" />
        </mxCell>
        <mxCell id="YGo_0VgkUicNfhtKMKbp-108" value="&lt;font style=&quot;font-size: 13px&quot; color=&quot;#000099&quot;&gt;&lt;b&gt;YES&lt;/b&gt;&lt;/font&gt;" style="text;html=1;align=center;verticalAlign=middle;resizable=0;points=[];autosize=1;strokeColor=none;fillColor=none;fontSize=19;fontColor=#000000;" vertex="1" parent="WIyWlLk6GJQsqaUBKTNV-1">
          <mxGeometry x="156" y="860" width="40" height="30" as="geometry" />
        </mxCell>
      </root>
    </mxGraphModel>
  </diagram>
</mxfile>
